<?xml version="1.0" encoding="utf-8"?>
<!-- Generator: Adobe Illustrator 24.1.0, SVG Export Plug-In . SVG Version: 6.00 Build 0)  -->
<svg version="1.1" id="Capa_1" xmlns="http://www.w3.org/2000/svg" xmlns:xlink="http://www.w3.org/1999/xlink" x="0px" y="0px"
	 viewBox="0 0 15.6 16" style="enable-background:new 0 0 15.6 16;" xml:space="preserve">
<style type="text/css">
	.st0{fill:none;}
	.st1{fill-rule:evenodd;clip-rule:evenodd;fill:#F3603C;}
	.st2{opacity:0.5;fill-rule:evenodd;clip-rule:evenodd;fill:#F3603C;enable-background:new    ;}
</style>
<g>
	<path class="st0" d="M0,0"/>
	<g>
		<path class="st1" d="M2.8,10.3c1.5,0,2.8,1.3,2.8,2.9c0,1.6-1.2,2.9-2.8,2.9C1.2,16,0,14.7,0,13.1C0,11.6,1.2,10.3,2.8,10.3z
			 M2.8,0c1.5,0,2.8,1.3,2.8,2.9c0,1.6-1.2,2.9-2.8,2.9S0,4.4,0,2.9C0,1.3,1.2,0,2.8,0z M12.8,0c1.5,0,2.8,1.3,2.8,2.9
			c0,1.6-1.2,2.9-2.8,2.9c-1.5,0-2.8-1.3-2.8-2.9C10,1.3,11.3,0,12.8,0z"/>
		<ellipse class="st2" cx="12.8" cy="13.3" rx="2.8" ry="2.9"/>
	</g>
</g>
</svg>
